<?xml version="1.0" encoding="UTF-8"?>
<svg id="uuid-b4b5963e-0156-4ed0-ba30-b542ed431b81" xmlns="http://www.w3.org/2000/svg" version="1.1" viewBox="0 0 246.1 246.1">
  <!-- Generator: Adobe Illustrator 29.1.0, SVG Export Plug-In . SVG Version: 2.1.0 Build 142)  -->
  <defs>
    <style>
      .st0 {
        fill: #fff;
      }

      .st1 {
        fill: #265ece;
      }

      .st2 {
        fill: #c12156;
      }
    </style>
  </defs>
  <rect class="st0" x="100.4" y="101.9" width="51.5" height="51.5" rx="7.1" ry="7.1"/>
  <path class="st2" d="M133,69.6c-.9-1.4-.8-1.3-1.5-2.2s-1.1-1.6-1.8-2.2c-.9-1-2.2-1.6-3.6-1.6s-2.6.5-3.6,1.6c-.7.7-1.3,1.6-1.7,2.2-.4.6-.6.9-1.5,2.3-1.9,3-22,34.4-24.4,38.3-4.7,7.5-6.6,10.4-8.5,14.2-1.7,3.4-1.7,7.4,0,10.8,1.7,3.4,3.7,6.6,8.6,14.3.1.2,18.9,29.7,24.3,38.2.9,1.4.8,1.3,1.5,2.2s1.1,1.6,1.8,2.2c.9,1,2.2,1.6,3.6,1.6s2.6-.5,3.6-1.6c.7-.7,1.3-1.6,1.7-2.2.4-.6.6-.9,1.5-2.3,1.9-3,22-34.4,24.4-38.3,4.7-7.5,6.6-10.4,8.5-14.2,1.7-3.4,1.7-7.4,0-10.8-1.7-3.4-3.7-6.6-8.6-14.3-.1-.2-18.9-29.7-24.3-38.2ZM150.7,146c0,1.5-.7,2.9-1.7,4-1.1,1.2-2.7,1.9-4.3,2h-37.1c-1.5,0-3-.7-4.1-1.8-1.2-1.1-1.9-2.7-1.9-4.3v-37.1c0-1.6.8-3.2,2-4.3,1.1-1,2.5-1.6,4-1.7h37.1c1.4,0,2.8.6,3.9,1.6,1.3,1.1,2.1,2.8,2.2,4.5v37.1Z"/>
  <g>
    <path class="st1" d="M145.4,106.3c-.6-.2-1.3-.2-2-.2-11.9,0-23.9,0-35.8,0-1.1,0-2.2.8-2.6,1.8-.2.4-.3.9-.3,1.4,0,12.2,0,24.3,0,36.5,0,1.4,1.1,2.8,2.5,3.1.4,0,.9,0,1.3,0h35.8c.9,0,1.8-.4,2.4-1,.5-.6.8-1.4.8-2.2,0-12.2,0-24.3,0-36.5,0-1.3-.9-2.5-2.1-2.9ZM121.4,133.5c0,1.8-1,3.4-2.4,4.5-1.2.9-2.7,1.4-4.2,1.4-.7,0-1.4,0-2.1,0,0-1.1,0-2.1,0-3.2.7,0,1.4,0,2.1,0,1.1,0,2.2-.6,2.7-1.5.4-.6.3-1.3.3-2-.7,0-1.4,0-2.1,0-.8,0-1.6,0-2.4-.2-1.5-.5-2.6-2-2.6-3.6,0-3.1,0-6.1,0-9.2,0-1,.4-2,1.1-2.8.7-.8,1.8-1.2,2.8-1.2,2.3,0,4.5,0,6.8,0,0,6,0,11.9,0,17.9ZM141.2,139.4c-5.8,0-11.6,0-17.4,0,0-1.1,0-2.1,0-3.2,5.8,0,11.6,0,17.4,0,0,1.1,0,2.1,0,3.2ZM141.6,132.7c-1.2,0-2.4,0-3.6,0,0-4.2,0-8.5,0-12.7,0-.6-.6-1.2-1.2-1.2-.8,0-1.6,0-2.4,0,0,4.6,0,9.3,0,13.9-1.2,0-2.4,0-3.6,0,0-4.6,0-9.3,0-13.9-1.2,0-2.4,0-3.6,0,0,4.6,0,9.3,0,13.9h-3.6c0-5.7,0-11.4,0-17.1,4.6,0,9.3,0,13.9,0,1,0,2,.4,2.8,1.1.8.7,1.2,1.8,1.2,2.8,0,4.4,0,8.7,0,13.1Z"/>
    <path class="st1" d="M114.3,120c0,2.8,0,5.5,0,8.3,0,.6.5,1.2,1.1,1.2.8,0,1.6,0,2.4,0,0-3.6,0-7.1,0-10.7-.8,0-1.6,0-2.4,0-.6,0-1.2.6-1.1,1.2Z"/>
    <path class="st1" d="M56.3,132.3c.8,0,2.6,0,3.4,0h21.4c.2,0,.3,0,.4,0,.1,0,.2-.2.2-.4,0,0,0-.1,0-.2-.4-.6-2.7-4.2-2.8-4.4-.1-.2-.3-.5-.5-.7-.3-.3-.5-.5-.8-.6-.3-.1-.8-.2-1.5-.3-.4,0-1,0-1.5,0-1.9,0-8.6,0-10.3,0s-.4,0-.6,0c-.7,0-1.1-.5-1.2-1.1,0-.2,0-.5,0-.6,0-.3,0-.7,0-1,1.8-35.5,31.1-63.7,67.1-63.7s59.4,22.9,65.7,53.4h3.4c-.9-4.5-2.3-8.9-4-13.1-11-26.9-37.4-45.9-68.3-45.9s-48.5,13.2-61.7,33.3c-7,10.8-11.2,23.6-11.6,37.3,0,.8,0,3,0,4.4,0,1,.1,2.1.9,2.9.7.6,1.5.7,2.4.8Z"/>
    <path class="st1" d="M199.3,126.3c0-1-.1-2.1-.9-2.9-.7-.6-1.5-.7-2.4-.8-.8,0-2.6,0-3.4,0h-21.4c-.2,0-.3,0-.4,0-.1,0-.2.2-.2.4,0,0,0,.1,0,.2.4.6,2.7,4.2,2.8,4.4.1.2.3.5.5.7.3.3.5.5.8.6.3.1.8.2,1.5.3.4,0,1,0,1.5,0,1.9,0,8.6,0,10.3,0s.4,0,.6,0c.7,0,1.1.5,1.2,1.1,0,.2,0,.5,0,.6,0,.3,0,.7,0,1-1.8,35.5-31.1,63.7-67.1,63.7s-59.4-22.9-65.7-53.4h-3.4c.9,4.5,2.3,8.9,4,13.1,11,26.9,37.4,45.9,68.3,45.9s48.5-13.2,61.7-33.3c7-10.8,11.2-23.6,11.6-37.3,0-.8,0-3,0-4.4Z"/>
  </g>
</svg>